<svg height="512" viewBox="0 0 58 58" width="512" xmlns="http://www.w3.org/2000/svg"><g id="Page-1" fill="none" fill-rule="evenodd"><g id="070---Laptop-Message-Not-Sent" fill-rule="nonzero"><path id="Shape" d="m54 14v35h-50v-35c0-2.209139 1.790861-4 4-4h42c2.209139 0 4 1.790861 4 4z" fill="#b0d3f0"/><path id="Shape" d="m54 14v35h-43.71c13.85-4.96 30.33-15.8 26.17-39h13.54c2.209139 0 4 1.790861 4 4z" fill="#90bae1"/><path id="Shape" d="m48 2v28c-.0032948 1.1032019-.8967981 1.9967052-2 2h-20l-2.9 2-5.53 3.82c-.3040317.2109529-.6997051.2367641-1.028566.067097s-.5371422-.5070727-.541434-.877097v-5.01h-4c-1.1032019-.0032948-1.9967052-.8967981-2-2v-28c.0032948-1.10320187.8967981-1.9967052 2-2h34c1.1032019.0032948 1.9967052.89679813 2 2z" fill="#f0c419"/><path id="Shape" d="m19 33c0 .5522847-.4477153 1-1 1h-2v-2h2c.5522847 0 1 .4477153 1 1z" fill="#f29c1f"/><path id="Shape" d="m26 32-2.9 2h-1.1c-.5522847 0-1-.4477153-1-1s.4477153-1 1-1z" fill="#f29c1f"/><path id="Shape" d="m29 4c-6.627417 0-12 5.372583-12 12s5.372583 12 12 12 12-5.372583 12-12-5.372583-12-12-12zm-7.54 14.67c-1.0334636-2.9068659-.3019785-6.1489711 1.8795252-8.3304748s5.4236089-2.91298882 8.3304748-1.8795252c.3264307.11365573.5720697.386349.6511244.72283824.0790547.33648923-.0194554.69003682-.2611244.93716176l-8.94 8.94c-.2471249.241669-.6006725.3401791-.9371618.2611244-.3364892-.0790547-.6091825-.3246937-.7228382-.6511244zm15.32-.8c-.5275478 2.2056835-1.9674635 4.0833179-3.960839 5.164891-1.9933756 1.0815731-4.3524325 1.2651995-6.489161.505109-.3264307-.1136557-.5720697-.386349-.6511244-.7228382-.0790547-.3364893.0194554-.6900369.2611244-.9371618l8.94-8.94c.2471249-.241669.6006725-.3401791.9371618-.2611244.3364892.0790547.6091825.3246937.7228382.6511244.5182269 1.4581075.6016071 3.0353815.24 4.54z" fill="#e64c3c"/><path id="Shape" d="m52 58h-46c-3.3137085 0-6-2.6862915-6-6v-3c0-.5522847.44771525-1 1-1h56c.5522847 0 1 .4477153 1 1v3c0 3.3137085-2.6862915 6-6 6z" fill="#3b97d3"/><path id="Shape" d="m39 48v2c0 1.6568542-1.3431458 3-3 3h-14c-1.6568542 0-3-1.3431458-3-3v-2z" fill="#2980ba"/><path id="Shape" d="m14 53h-2c-.5522847 0-1-.4477153-1-1s.4477153-1 1-1h2c.5522847 0 1 .4477153 1 1s-.4477153 1-1 1z" fill="#2980ba"/><circle id="Oval" cx="4" cy="52" fill="#f0c419" r="1"/><circle id="Oval" cx="8" cy="52" fill="#65ddb9" r="1"/></g></g></svg>